# xmcd
#
# Track frame offsets:
#	150
#	16262
#	28372
#	43579
#	56602
#	70608
#	88877
#	104987
#	121910
#	147502
#	161208
#	175892
#
# Disc length: 2623 seconds
#
# Revision: 1
# Processed by: cddbd v1.4PL0 Copyright (c) Steve Scherf et al.
# Submitted via: audiograbber 1.81.03
#
DISCID=b00a3d0c
DTITLE=Thomas Wade - ... So Far
DYEAR=2002
DGENRE=Country
TTITLE0=The Loser Wins Again
TTITLE1=Some Guys
TTITLE2=I'd Say It Again
TTITLE3=I Read Lips
TTITLE4=Running Away With You
TTITLE5=Lying Here With You
TTITLE6=Zero To Sixty
TTITLE7=If You Ain't Got It
TTITLE8=Seven Years On
TTITLE9=Wild, Wild, Wild Ride
TTITLE10=She's Getting Serious
TTITLE11=Angel's Wings
EXTD=
EXTT0=
EXTT1=
EXTT2=
EXTT3=
EXTT4=
EXTT5=
EXTT6=
EXTT7=
EXTT8=
EXTT9=
EXTT10=
EXTT11=
PLAYORDER=
